<svg width="137" height="28" viewBox="0 0 137 28" fill="none" xmlns="http://www.w3.org/2000/svg">
<path fill-rule="evenodd" clip-rule="evenodd" d="M132.821 12.6396C132.627 12.5311 132.315 12.4765 131.885 12.4765H131.225V14.0651H131.924C132.251 14.0651 132.496 14.0326 132.66 13.9676C132.962 13.8473 133.113 13.6192 133.113 13.2818C133.113 12.9627 133.016 12.7482 132.821 12.6396V12.6396ZM131.987 11.9487C132.531 11.9487 132.93 12.0013 133.184 12.1066C133.638 12.2958 133.864 12.6663 133.864 13.2181C133.864 13.6101 133.722 13.8987 133.436 14.0839C133.285 14.1821 133.074 14.2523 132.802 14.2965C133.146 14.3504 133.397 14.4941 133.555 14.7255C133.714 14.9575 133.794 15.1844 133.794 15.4047V15.7258C133.794 15.8272 133.797 15.9358 133.804 16.0521C133.811 16.1678 133.824 16.2439 133.842 16.2803L133.87 16.3342H133.146C133.142 16.3199 133.139 16.3056 133.135 16.2913C133.131 16.2764 133.128 16.2601 133.124 16.2419L133.108 16.1015V15.7544C133.108 15.2481 132.97 14.9133 132.695 14.7508C132.531 14.6566 132.245 14.6098 131.835 14.6098H131.225V16.3342H130.453V11.9487H131.987ZM129.636 11.7257C128.969 12.3965 128.635 13.2077 128.635 14.158C128.635 15.1155 128.967 15.9319 129.631 16.6066C130.299 17.2813 131.109 17.6186 132.063 17.6186C133.017 17.6186 133.828 17.2813 134.496 16.6066C135.163 15.9319 135.497 15.1155 135.497 14.158C135.497 13.2077 135.163 12.3965 134.496 11.7257C133.824 11.051 133.014 10.7137 132.063 10.7137C131.116 10.7137 130.307 11.051 129.636 11.7257V11.7257ZM134.893 16.9875C134.113 17.7707 133.17 18.1627 132.063 18.1627C130.956 18.1627 130.015 17.7707 129.239 16.9875C128.466 16.2075 128.08 15.2624 128.08 14.1528C128.08 13.053 128.47 12.1138 129.25 11.3338C130.026 10.5577 130.964 10.1696 132.063 10.1696C133.17 10.1696 134.113 10.5577 134.893 11.3338C135.672 12.1105 136.062 13.0498 136.062 14.1528C136.062 15.2591 135.672 16.2036 134.893 16.9875V16.9875Z" fill="#1E1E1E"/>
<mask id="mask0_44926_58" style="mask-type:luminance" maskUnits="userSpaceOnUse" x="0" y="0" width="20" height="21">
<path fill-rule="evenodd" clip-rule="evenodd" d="M0.000396729 0.650064H19.9918V20.642H0.000396729V0.650064Z" fill="white"/>
</mask>
<g mask="url(#mask0_44926_58)">
<path fill-rule="evenodd" clip-rule="evenodd" d="M9.9961 15.5935C7.2635 15.5935 5.0483 13.3783 5.0483 10.6463C5.0483 7.91375 7.2635 5.69855 9.9961 5.69855C12.7287 5.69855 14.9439 7.91375 14.9439 10.6463C14.9439 13.3783 12.7287 15.5935 9.9961 15.5935M9.9961 0.65C4.475 0.65 0.000396729 5.12525 0.000396729 10.6463C0.000396729 16.1668 4.475 20.642 9.9961 20.642C15.5165 20.642 19.9918 16.1668 19.9918 10.6463C19.9918 5.12525 15.5165 0.65 9.9961 0.65" fill="#FF5758"/>
</g>
<mask id="mask1_44926_58" style="mask-type:luminance" maskUnits="userSpaceOnUse" x="24" y="10" width="19" height="18">
<path fill-rule="evenodd" clip-rule="evenodd" d="M24.8664 10.1695H42.9553V27.0173H24.8664V10.1695Z" fill="white"/>
</mask>
<g mask="url(#mask1_44926_58)">
<path fill-rule="evenodd" clip-rule="evenodd" d="M24.8664 23.2345L27.7908 20.7548C29.2851 22.5351 31.5426 23.4893 34.8485 23.4893C37.0741 23.4893 38.0595 23.0122 38.0595 22.0268C38.0595 21.1363 37.5817 20.7873 35.7702 20.5962L31.5426 20.1834C27.664 19.7057 25.82 18.0852 25.82 15.2876C25.82 12.0454 28.808 10.1695 34.1491 10.1695C37.9958 10.1695 41.1106 11.2505 42.8909 13.1894L40.3475 15.7959C38.7264 14.3334 36.7237 13.6347 33.8631 13.6347C31.7649 13.6347 30.7795 14.0474 30.7795 14.9691C30.7795 15.7329 31.3521 16.1138 32.814 16.273L37.4868 16.7495C41.3972 17.1947 42.9553 18.8158 42.9553 21.6134C42.9553 24.983 40.1252 27.0175 34.5943 27.0175C30.175 27.0175 26.8372 25.7143 24.8664 23.2345" fill="black"/>
</g>
<path fill-rule="evenodd" clip-rule="evenodd" d="M43.4937 10.6462H47.0862V6.86316L52.5222 4.82866V10.6462H57.7664V14.2062H52.5222V19.7696C52.5222 21.6448 53.5076 22.5665 55.5096 22.5665C56.4319 22.5665 57.1625 22.4404 57.7664 22.313V26.4457C56.6549 26.7317 55.4777 26.891 54.0789 26.891C49.2156 26.891 47.0862 24.824 47.0862 20.9779V14.2062H43.4937V10.6462Z" fill="black"/>
<mask id="mask2_44926_58" style="mask-type:luminance" maskUnits="userSpaceOnUse" x="58" y="10" width="21" height="18">
<path fill-rule="evenodd" clip-rule="evenodd" d="M58.5929 10.1695H78.4621V27.0173H58.5929V10.1695Z" fill="white"/>
</mask>
<g mask="url(#mask2_44926_58)">
<path fill-rule="evenodd" clip-rule="evenodd" d="M72.9299 18.5617C72.9299 15.4469 71.2133 13.8245 68.5119 13.8245C65.8085 13.8245 64.0925 15.4469 64.0925 18.5617C64.0925 21.6765 65.8085 23.3619 68.5119 23.3619C71.2133 23.3619 72.9299 21.6765 72.9299 18.5617M58.5929 18.5617C58.5929 13.1894 62.7249 10.1695 68.5119 10.1695C74.2969 10.1695 78.4621 13.1894 78.4621 18.5617C78.4621 23.9339 74.2969 27.0175 68.5119 27.0175C62.7249 27.0175 58.5929 23.9339 58.5929 18.5617" fill="black"/>
</g>
<path fill-rule="evenodd" clip-rule="evenodd" d="M92.1294 10.2332C92.6065 10.2332 92.8606 10.2644 93.1785 10.3281V15.2876C92.6383 15.1914 92.1612 15.1602 91.5574 15.1602C89.8732 15.1602 88.6967 15.6055 87.9018 16.3679C86.852 17.354 86.4705 18.8158 86.4705 20.565V26.8908H81.0352V10.646H85.9947V15.0328C86.8845 12.0129 89.0146 10.2332 92.1294 10.2332" fill="black"/>
<path fill-rule="evenodd" clip-rule="evenodd" d="M100.712 10.6462V13.8247C101.793 11.3774 103.764 10.1697 106.593 10.1697C109.391 10.1697 111.266 11.3774 112.22 13.8572C113.523 11.4086 115.653 10.1697 118.451 10.1697C122.424 10.1697 124.649 12.6495 124.649 17.1312V26.891H119.213V18.1166C119.213 15.5101 118.195 14.2387 116.162 14.2387C114.032 14.2387 112.76 15.7006 112.76 18.2115V26.891H107.324V18.1166C107.324 15.5101 106.306 14.2387 104.273 14.2387C102.142 14.2387 100.871 15.7331 100.871 18.3077V26.891H95.4344V10.6462H100.712Z" fill="black"/>
</svg>
